<?xml version="1.0" encoding="iso-8859-1"?>
<svg version="1.1" id="Layer_1" xmlns="http://www.w3.org/2000/svg" xmlns:xlink="http://www.w3.org/1999/xlink" 
	 viewBox="0 0 512 512" xml:space="preserve">
<path style="fill:#FBB03B;" d="M390.732,321.279l65.774-11.598c14.843-2.618,28.997,7.293,31.615,22.137l10.956,62.134
	c2.618,14.843-7.293,28.997-22.137,31.615l-349.225,61.578l2.458-16.81L390.732,321.279z"/>
<g>
	<polygon style="fill:#FFFFFF;" points="188.683,436.713 129.26,470.334 129.26,487.144 188.683,478.74 	"/>
	<polyline style="fill:#FFFFFF;" points="365.52,327.444 400.499,318.928 420.933,434.815 387.822,440.653 367.389,324.766 	"/>
	<polygon style="fill:#FFFFFF;" points="305.047,455.248 291.404,377.875 260.229,394.683 271.937,461.086 	"/>
</g>
<rect x="302.283" y="405.553" transform="matrix(-0.1736 -0.9848 0.9848 -0.1736 -27.8979 803.7848)" width="42.023" height="16.09"/>
<path style="fill:#A65A53;" d="M333.416,218.178l56.414-32.571c13.053-7.536,29.744-3.064,37.279,9.989l31.546,54.64
	c7.536,13.053,3.064,29.744-9.989,37.28L132.014,470.335"/>
<g>
	<polyline style="fill:#FFFFFF;" points="311.247,230.261 370.084,332.17 399.2,315.359 340.363,213.451 	"/>
	<polyline style="fill:#FFFFFF;" points="260.615,310.67 297.292,374.197 268.176,391.007 236.325,335.84 	"/>
	<polygon style="fill:#FFFFFF;" points="177.633,403.077 194.699,433.033 129.26,470.334 129.26,453.523 	"/>
</g>
<rect x="381.106" y="261.936" transform="matrix(-0.5 -0.866 0.866 -0.5 369.3719 753.2147)" width="42.023" height="16.09"/>
<rect x="279.209" y="320.784" transform="matrix(-0.5 -0.866 0.866 -0.5 165.5615 753.2427)" width="42.023" height="16.09"/>
<path style="fill:#BF9484;" d="M247.845,135.787l36.894-43.969c9.688-11.546,26.902-13.052,38.448-3.364l48.332,40.555
	c11.546,9.688,13.052,26.902,3.364,38.448L134.847,453.521"/>
<g>
	
		<rect x="223.233" y="168.787" transform="matrix(0.766 0.6428 -0.6428 0.766 185.3025 -137.8904)" style="fill:#FFFFFF;" width="117.665" height="33.62"/>
	<polygon style="fill:#FFFFFF;" points="262.283,300.685 204.016,251.793 191.775,285.411 240.672,326.44 	"/>
	<polygon style="fill:#FFFFFF;" points="160.718,369.456 185.96,390.829 129.26,453.523 129.26,419.902 	"/>
</g>
<rect x="304.122" y="158.859" transform="matrix(-0.766 -0.6428 0.6428 -0.766 466.9035 503.7561)" width="42.023" height="16.089"/>
<rect x="228.491" y="249.006" transform="matrix(-0.766 -0.6428 0.6428 -0.766 275.3895 614.3419)" width="42.023" height="16.091"/>
<path style="fill:#514A51;" d="M134.811,92.1l19.097-52.47c5.155-14.164,20.816-21.465,34.978-16.311l59.288,21.579
	c14.164,5.155,21.466,20.816,16.311,34.978L134.607,436.715"/>
<g>
	<polygon style="fill:#FFFFFF;" points="133.913,92.757 244.49,133.004 232.991,164.597 130.145,127.164 	"/>
	<polygon style="fill:#FFFFFF;" points="130.18,216.624 204.244,243.581 192.744,275.174 128.501,251.791 	"/>
	<polygon style="fill:#FFFFFF;" points="129.26,436.713 162.881,352.661 129.26,344.256 	"/>
</g>
<rect x="196.557" y="88.319" transform="matrix(-0.9397 -0.342 0.342 -0.9397 389.0625 261.3263)" width="42.024" height="16.09"/>
<rect x="156.318" y="198.903" transform="matrix(-0.9397 -0.342 0.342 -0.9397 273.1903 462.0654)" width="42.024" height="16.091"/>
<path style="fill:#F1506E;" d="M130.173,293.823H12.499V34.574c0-14.651,11.877-26.529,26.529-26.529h64.616
	c14.651,0,26.529,11.877,26.529,26.529v259.25H130.173z"/>
<path style="fill:#FFFFFF;" d="M103.545,503.955H39.127c-14.706,0-26.628-11.921-26.628-26.628V293.823h117.673v183.504
	C130.173,492.034,118.251,503.955,103.545,503.955z"/>
<circle style="fill:#BF9484;" cx="71.339" cy="436.708" r="16.805"/>
<path d="M103.192,512H39.48c-19.314,0-35.026-15.712-35.026-35.026V35.033C4.454,15.716,20.171,0,39.487,0h63.696
	c19.318,0,35.034,15.716,35.034,35.033v441.941C138.218,496.288,122.506,512,103.192,512z M39.487,16.09
	c-10.446,0-18.943,8.498-18.943,18.943v441.941c0,10.442,8.494,18.936,18.936,18.936h63.712c10.442,0,18.936-8.494,18.936-18.936
	V35.033c0-10.446-8.498-18.943-18.943-18.943H39.487V16.09z"/>
<path d="M71.336,461.569c-13.705,0-24.856-11.15-24.856-24.856c0-13.706,11.151-24.856,24.856-24.856s24.856,11.15,24.856,24.856
	C96.192,450.419,85.041,461.569,71.336,461.569z M71.336,427.948c-4.833,0-8.765,3.932-8.765,8.765s3.931,8.765,8.765,8.765
	s8.765-3.933,8.765-8.765C80.1,431.881,76.169,427.948,71.336,427.948z"/>
<rect x="38.562" y="319.759" style="fill:#F1506E;" width="67.763" height="15.638"/>
<rect x="38.562" y="345.822" style="fill:#A65A53;" width="41.7" height="15.638"/>
<rect x="38.562" y="370.842" style="fill:#F1506E;" width="15.638" height="15.638"/>
<rect x="62.539" y="370.842" style="fill:#A65A53;" width="34.403" height="15.638"/>
<polygon style="fill:#FFFFFF;" points="96.942,226.972 80.262,226.972 80.262,209.25 64.624,209.25 64.624,226.972 46.902,226.972 
	46.902,242.61 64.624,242.61 64.624,259.29 80.262,259.29 80.262,242.61 96.942,242.61 "/>
<path d="M507,392.555l-10.956-62.134c-1.639-9.296-6.799-17.396-14.53-22.81c-7.732-5.413-17.108-7.491-26.405-5.853l-21.629,3.814
	l19.21-11.091c16.873-9.742,22.676-31.395,12.933-48.269l-31.546-54.64c-4.718-8.174-12.339-14.021-21.456-16.464
	c-9.119-2.443-18.64-1.188-26.813,3.531l-19.021,10.981l14.258-16.992c12.524-14.926,10.57-37.257-4.356-49.782l-48.332-40.555
	c-14.925-12.522-37.256-10.57-49.782,4.356l-14.118,16.824l7.586-20.843c3.229-8.87,2.81-18.465-1.179-27.019
	c-3.989-8.555-11.07-15.043-19.939-18.271l-59.289-21.579c-18.309-6.663-38.626,2.811-45.29,21.119l-7.511,20.638V35.033
	C138.838,15.716,123.121,0,103.803,0H40.107C20.789,0,5.073,15.716,5.073,35.033v441.941C5.073,496.287,20.786,512,40.099,512
	h63.712c13.075,0,24.492-7.206,30.508-17.85l344.018-60.66c9.295-1.639,17.396-6.8,22.809-14.532
	C506.56,411.228,508.639,401.85,507,392.555z M198.638,422.58L187.5,403.288l6.243-7.439l8.107,14.041l13.934-8.045l-11.035-19.112
	l29.24-34.848l23.507,40.714L198.638,422.58z M138.838,353.562l15.43,5.616l-15.43,42.393V353.562z M305.452,237.686l-43.685,52.063
	l-49.874-41.85l24.737-67.963L305.452,237.686z M240.154,315.504l-40.499-33.984l6.381-17.532l45.388,38.085L240.154,315.504z
	 M223.261,169.618l-23.245,63.863l-61.18-22.267V138.89L223.261,169.618z M194.514,248.601l-5.995,16.473l-49.681-18.082v-18.655
	L194.514,248.601z M193.799,297.61l36.014,30.219l-43.685,52.063l-17.064-14.319l3.321-9.126l12.419,10.422l10.343-12.325
	l-16.906-14.186L193.799,297.61z M163.206,381.663l12.578,10.554l-28.997,34.558L163.206,381.663z M271.429,380.553l-26.435-45.786
	l11.992-14.292l29.625,51.312L271.429,380.553z M300.547,363.742l-32.553-56.384l46.489-55.403l44.922,77.806L300.547,363.742z
	 M373.338,321.717l-47.849-82.878l11.763-14.019l0.188,0.324l0.291-0.168l50.791,87.974L373.338,321.717z M315.793,225.361
	l-73.309-61.514l6.381-17.532l78.198,65.616L315.793,225.361z M228.765,154.497l-89.927-32.731v-18.656l95.922,34.913
	L228.765,154.497z M183.015,280.195l-23.244,63.863l-20.933-7.619v-9.711l15.235,5.545l5.503-15.121l-20.739-7.549v-45.489
	L183.015,280.195z M138.838,456.869l0.168,0.14l-0.168,0.097V456.869z M176.493,416.404l8.21,14.221l-39.07,22.557L176.493,416.404z
	 M200.337,440.178l2.816,15.967l15.845-2.794l-3.832-21.734l39.395-22.745l8.164,46.299l-66.93,11.802l-3.869-21.938
	L200.337,440.178z M269.389,400.311l16.157-9.328l10.289,58.349l-17.265,3.044L269.389,400.311z M300.375,382.421l62.635-36.163
	l15.601,88.478l-66.93,11.801L300.375,382.421z M377.838,337.697l14.901-8.603l1.343-0.237l17.639,100.04l-17.265,3.044
	L377.838,337.697z M393.853,192.574c4.453-2.572,9.639-3.254,14.603-1.922c4.965,1.329,9.116,4.514,11.687,8.966l31.546,54.64
	c5.305,9.19,2.146,20.984-7.044,26.29l-42.19,24.358l-50.791-87.974L393.853,192.574z M290.902,96.989
	c6.821-8.13,18.984-9.193,27.114-2.372l48.332,40.556c8.129,6.82,9.193,18.984,2.372,27.113l-31.315,37.32l-77.817-65.297
	L290.902,96.989z M161.468,42.381c3.63-9.971,14.693-15.134,24.668-11.502l59.288,21.579c4.831,1.759,8.687,5.292,10.86,9.951
	s2.401,9.885,0.642,14.715l-16.662,45.779l-95.458-34.744L161.468,42.381z M40.107,16.09h63.696
	c10.446,0,18.943,8.498,18.943,18.943v250.319H21.163V35.033C21.163,24.588,29.662,16.09,40.107,16.09z M103.811,495.911H40.099
	c-10.442,0-18.936-8.494-18.936-18.936V300.991h101.584v175.984C122.746,487.415,114.252,495.911,103.811,495.911z M138.838,476.974
	v-1.289l38.261-22.09l2.851,16.17l-41.113,7.25C138.837,477.002,138.838,476.988,138.838,476.974z M487.966,409.73
	c-2.948,4.211-7.361,7.021-12.424,7.915l-47.977,8.46l-17.639-100.04l47.977-8.46c5.059-0.889,10.169,0.239,14.38,3.189
	c4.211,2.948,7.021,7.36,7.915,12.423l10.956,62.134C492.046,400.412,490.914,405.519,487.966,409.73z"/>
<rect x="418.164" y="385.134" transform="matrix(0.1737 0.9848 -0.9848 0.1737 750.0931 -107.6155)" width="42.024" height="16.09"/>
</svg>