<svg width="1025" height="1025" viewBox="0 0 1025 1025" fill="none" xmlns="http://www.w3.org/2000/svg">
<g clip-path="url(#clip0_402_44)">
<rect width="1025" height="1025" fill="none"/>
<path d="M514.621 1025C349.685 1025.71 215.36 893.569 215.36 730.356C215.36 663.928 238.047 599.642 279.461 547.5L289.545 536.071C290.625 535 292.066 533.571 293.146 532.5L586.645 209.645C632.74 250.716 636.702 321.072 595.288 366.429L373.813 609.999C344.283 643.214 328.078 686.07 328.078 730.356C328.078 832.141 412.706 915.355 516.061 913.569C617.615 911.783 698.642 828.212 698.642 727.499V651.071C698.642 589.642 748.699 540 811 540V726.784C810.64 889.998 678.836 1024.28 514.621 1025Z" fill="white"/>
<path d="M746.539 477.143V477.857L440.076 814.998C393.98 773.927 390.019 703.57 431.433 658.213L652.907 414.643C682.437 381.429 698.643 338.215 698.643 294.287C698.643 192.502 614.014 109.288 510.659 111.074C408.385 112.502 327.358 196.43 327.358 297.144V373.572C327.358 435 277.301 484.643 215 484.643V297.858C215.36 135.359 347.164 0.717164 511.02 0.00288215C675.955 -0.711399 810.28 131.431 810.28 294.644C810.64 361.072 787.953 425.358 746.539 477.143Z" fill="white"/>
</g>
<defs>
<clipPath id="clip0_402_44">
<rect width="1025" height="1025" fill="white"/>
</clipPath>
</defs>
</svg>
