<svg width="24" height="24" viewBox="0 0 24 24" fill="none" xmlns="http://www.w3.org/2000/svg">
<path d="M21.7491 7.67398C21.7563 7.34703 21.6739 7.02436 21.5106 6.74098C21.3394 6.46275 21.0971 6.23519 20.8086 6.08173C18.2116 4.64773 15.6134 3.21448 13.0139 1.78198C12.7005 1.59343 12.341 1.49531 11.9752 1.49849C11.6095 1.50166 11.2517 1.60602 10.9416 1.79998C9.90813 2.38423 4.73538 5.22373 3.19338 6.07948C2.89994 6.22688 2.65498 6.45541 2.4876 6.73792C2.32022 7.02044 2.23745 7.34506 2.24913 7.67323V16.3275C2.24156 16.647 2.31922 16.9629 2.47413 17.2425C2.64638 17.5287 2.89386 17.7622 3.18963 17.9175C4.73163 18.7732 9.90513 21.6127 10.9386 22.197C11.2486 22.3912 11.6063 22.4958 11.972 22.4992C12.3378 22.5027 12.6973 22.4048 13.0109 22.2165C15.6059 20.781 18.2024 19.3477 20.8004 17.9167C21.0962 17.7612 21.3439 17.5278 21.5166 17.2417C21.6715 16.9621 21.7492 16.6463 21.7416 16.3267V7.67398" fill="#659AD2"/>
<path d="M21.4117 17.3782C21.451 17.3348 21.4878 17.2892 21.522 17.2417C21.6769 16.9621 21.7546 16.6463 21.747 16.3267V7.67397C21.7542 7.34703 21.6717 7.02435 21.5085 6.74097C21.4815 6.69672 21.4418 6.66222 21.411 6.62097L12 12L21.4117 17.3782Z" fill="#00599C"/>
<path d="M21.4114 17.3782L11.9996 12L2.58789 17.3782C2.74704 17.6015 2.95442 17.7861 3.19464 17.9183C4.73664 18.774 9.91014 21.6135 10.9436 22.1978C11.2536 22.3919 11.6113 22.4966 11.977 22.5C12.3428 22.5034 12.7023 22.4056 13.0159 22.2172C15.6109 20.7817 18.2074 19.3485 20.8054 17.9175C21.0453 17.7856 21.2525 17.6012 21.4114 17.3782Z" fill="#004482"/>
<path d="M14.7004 13.515C14.3663 14.1092 13.8452 14.5762 13.2181 14.8434C12.591 15.1107 11.8932 15.1631 11.2333 14.9926C10.5733 14.8221 9.98819 14.4382 9.56904 13.9007C9.14988 13.3632 8.92018 12.7022 8.91568 12.0205C8.91117 11.3389 9.13212 10.6749 9.54414 10.1319C9.95616 9.58889 10.5361 9.1973 11.1938 9.0181C11.8514 8.83889 12.5499 8.88212 13.1804 9.14105C13.811 9.39998 14.3382 9.86009 14.6801 10.4498L17.3914 8.89501C16.7032 7.71398 15.6458 6.79198 14.3821 6.27104C13.1183 5.75009 11.7183 5.65911 10.3978 6.01209C9.07725 6.36508 7.90939 7.14246 7.07412 8.22447C6.23886 9.30649 5.78252 10.6331 5.7754 12C5.77404 13.0839 6.05861 14.149 6.6004 15.0878C7.14902 16.036 7.93762 16.823 8.88692 17.3698C9.83621 17.9165 10.9127 18.2037 12.0082 18.2024C13.1037 18.2011 14.1795 17.9114 15.1275 17.3624C16.0755 16.8134 16.8623 16.0245 17.4086 15.075L14.7004 13.515Z" fill="white"/>
<path d="M18.0574 11.6535H17.3629V10.9628H16.6691V11.6535H15.9746V12.3458H16.6691V13.0358H17.3629V12.3458H18.0574V11.6535Z" fill="white"/>
<path d="M20.6616 11.6535H19.9671V10.9628H19.2726V11.6535H18.5781V12.3458H19.2726V13.0358H19.9671V12.3458H20.6616V11.6535Z" fill="white"/>
</svg>
