<svg width="24" height="24" viewBox="0 0 24 24" fill="none" xmlns="http://www.w3.org/2000/svg">
<path d="M20.999 8.30991C20.9989 7.95557 20.9231 7.64246 20.7699 7.37374C20.6193 7.10949 20.3939 6.88801 20.0915 6.71289C17.5953 5.27361 15.0968 3.83872 12.6014 2.39796C11.9287 2.00959 11.2765 2.02374 10.6087 2.4177C9.61518 3.00364 4.64087 5.85353 3.15859 6.71209C2.54814 7.06547 2.2511 7.6063 2.25095 8.30925C2.25 11.2037 2.25095 14.0982 2.25 16.9927C2.25 17.3393 2.3227 17.6463 2.46921 17.911C2.61982 18.1833 2.84841 18.4108 3.15778 18.5899C4.64013 19.4485 9.6151 22.2981 10.6084 22.8842C11.2765 23.2784 11.9287 23.2925 12.6017 22.904C15.0971 21.4631 17.5958 20.0283 20.0923 18.589C20.4017 18.41 20.6303 18.1823 20.7809 17.9103C20.9272 17.6456 21 17.3386 21 16.9919C21 16.9919 21 11.2045 20.999 8.30991Z" fill="#A179DC"/>
<path d="M11.6532 12.6228L2.46875 17.911C2.61936 18.1833 2.84796 18.4108 3.15733 18.5899C4.63968 19.4485 9.61465 22.2981 10.608 22.8842C11.276 23.2784 11.9283 23.2925 12.6012 22.904C15.0966 21.4631 17.5953 20.0283 20.0918 18.589C20.4012 18.41 20.6298 18.1823 20.7804 17.9103L11.6532 12.6228Z" fill="#280068"/>
<path d="M20.9997 8.30989C20.9995 7.95555 20.9237 7.64244 20.7705 7.37372L11.6543 12.6228L20.7815 17.9103C20.9278 17.6456 21.0005 17.3385 21.0006 16.9919C21.0006 16.9919 21.0006 11.2045 20.9997 8.30989Z" fill="#390091"/>
<path d="M17.0608 10.6459V11.6343H18.0493V10.6459H18.5435V11.6343H19.5319V12.1286H18.5435V13.117H19.5319V13.6112H18.5435V14.5997H18.0493V13.6112H17.0608V14.5997H16.5666V13.6112H15.5781V13.117H16.5666V12.1286H15.5781V11.6343H16.5666V10.6459H17.0608ZM18.0493 12.1286H17.0608V13.117H18.0493V12.1286Z" fill="white"/>
<path d="M11.6726 5.68158C14.2508 5.68158 16.5018 7.08179 17.7074 9.16305L17.6957 9.14302L14.6623 10.8896C14.0646 9.87771 12.969 9.19483 11.7121 9.18076L11.6726 9.18054C9.75593 9.18054 8.20209 10.7343 8.20209 12.6509C8.20209 13.2777 8.36919 13.8652 8.65979 14.3727C9.25799 15.417 10.3825 16.1214 11.6726 16.1214C12.9705 16.1214 14.1015 15.4081 14.6966 14.3526L14.6822 14.3779L17.711 16.1326C16.5186 18.1962 14.2984 19.5921 11.7502 19.6199L11.6726 19.6204C9.08621 19.6204 6.82881 18.2115 5.62617 16.1193C5.03905 15.0978 4.70312 13.9137 4.70312 12.6509C4.70312 8.80191 7.82338 5.68158 11.6726 5.68158Z" fill="white"/>
</svg>
