<svg width="24" height="24" viewBox="0 0 24 24" fill="none" xmlns="http://www.w3.org/2000/svg">
<path d="M18.75 10.125H13.8864L19.265 15.2048C19.3741 15.3079 19.4498 15.4414 19.4823 15.588C19.5147 15.7346 19.5024 15.8876 19.4469 16.0271C19.3915 16.1666 19.2954 16.2863 19.1711 16.3706C19.0469 16.4549 18.9002 16.5 18.75 16.5H12.75V22.125C12.75 22.2715 12.7071 22.4148 12.6266 22.5372C12.546 22.6596 12.4314 22.7557 12.2969 22.8137C12.1623 22.8717 12.0137 22.889 11.8695 22.8635C11.7252 22.838 11.5915 22.7708 11.485 22.6702L4.73502 16.2952C4.66079 16.2251 4.60166 16.1406 4.56125 16.0469C4.52084 15.9531 4.5 15.8521 4.5 15.75V9.375C4.5 9.17609 4.57902 8.98532 4.71967 8.84467C4.86032 8.70402 5.05109 8.625 5.25 8.625H10.1136L4.73502 3.54524C4.62585 3.44214 4.55015 3.30864 4.51771 3.16202C4.48527 3.01541 4.49759 2.86244 4.55307 2.7229C4.60855 2.58337 4.70463 2.4637 4.82889 2.37939C4.95314 2.29507 5.09984 2.25 5.25 2.25H18.75C18.9489 2.25 19.1397 2.32902 19.2803 2.46967C19.421 2.61032 19.5 2.80109 19.5 3V9.375C19.5 9.57391 19.421 9.76468 19.2803 9.90533C19.1397 10.046 18.9489 10.125 18.75 10.125Z" fill="black"/>
</svg>
