
<svg width="24" height="24" viewBox="0 0 24 24" fill="none" xmlns="http://www.w3.org/2000/svg">
<path d="M8.84889 18.553C8.84889 18.553 7.93339 19.0854 9.50042 19.2655C11.3988 19.4821 12.3691 19.451 14.4611 19.0551C14.4611 19.0551 15.0112 19.4 15.7793 19.6987C11.0895 21.7087 5.16526 19.5823 8.84889 18.553Z" fill="#5382A1"/>
<path d="M8.27572 15.9301C8.27572 15.9301 7.2489 16.6902 8.81709 16.8524C10.845 17.0616 12.4465 17.0787 15.2178 16.5451C15.2178 16.5451 15.6011 16.9337 16.2038 17.1462C10.5335 18.8043 4.21777 17.277 8.27572 15.9301Z" fill="#5382A1"/>
<path d="M13.1068 11.4808C14.2624 12.8112 12.8032 14.0085 12.8032 14.0085C12.8032 14.0085 15.7374 12.4937 14.3898 10.5969C13.1313 8.82806 12.1661 7.94917 17.3911 4.91888C17.3911 4.91888 9.18961 6.96723 13.1068 11.4808Z" fill="#E76F00"/>
<path d="M19.3095 20.493C19.3095 20.493 19.9869 21.0513 18.5633 21.4831C15.8563 22.3032 7.29633 22.5508 4.91841 21.5158C4.06361 21.1439 5.66661 20.6279 6.17085 20.5196C6.69672 20.4055 6.99723 20.4268 6.99723 20.4268C6.04661 19.7571 0.852783 21.7417 4.35903 22.3101C13.9211 23.8608 21.7897 21.6118 19.3095 20.493Z" fill="#5382A1"/>
<path d="M9.28876 13.2125C9.28876 13.2125 4.93463 14.2466 7.74685 14.6222C8.93426 14.7812 11.3013 14.7452 13.5062 14.5605C15.3081 14.4085 17.1175 14.0853 17.1175 14.0853C17.1175 14.0853 16.4821 14.3574 16.0224 14.6713C11.6009 15.8341 3.05927 15.2932 5.51829 14.1037C7.59789 13.0984 9.28876 13.2125 9.28876 13.2125Z" fill="#5382A1"/>
<path d="M17.1001 17.5784C21.5948 15.2428 19.5166 12.9983 18.0661 13.3007C17.7106 13.3747 17.552 13.4388 17.552 13.4388C17.552 13.4388 17.684 13.232 17.9361 13.1425C20.8057 12.1337 23.0127 16.1181 17.0098 17.6961C17.0098 17.6961 17.0793 17.634 17.1001 17.5784Z" fill="#5382A1"/>
<path d="M14.3894 0.0257568C14.3894 0.0257568 16.8787 2.51584 12.0285 6.34488C8.13915 9.41642 11.1416 11.1677 12.0269 13.1687C9.75661 11.1203 8.09053 9.31718 9.20827 7.63896C10.8488 5.17548 15.3938 3.9811 14.3894 0.0257568Z" fill="#E76F00"/>
<path d="M9.73073 23.9074C14.0451 24.1836 20.6703 23.7542 20.8272 21.7128C20.8272 21.7128 20.5256 22.4867 17.2616 23.1013C13.5792 23.7942 9.03749 23.7133 6.34375 23.2692C6.34375 23.2692 6.89519 23.7256 9.73073 23.9074Z" fill="#5382A1"/>
</svg>
