<svg width="24" height="24" viewBox="0 0 24 24" fill="none" xmlns="http://www.w3.org/2000/svg">
<path d="M14.0086 11.9819C14.0086 10.9061 13.1091 10.0339 11.9994 10.0339C10.8899 10.0339 9.99023 10.9061 9.99023 11.9819C9.99023 13.0579 10.8899 13.93 11.9994 13.93C13.1091 13.93 14.0086 13.0579 14.0086 11.9819Z" fill="#53C1DE"/>
<path fill-rule="evenodd" clip-rule="evenodd" d="M18.5253 8.36527C18.9496 6.69358 19.4829 3.59361 17.6028 2.54262C15.7315 1.49621 13.2963 3.50132 12.0104 4.70488C10.7283 3.51331 8.22472 1.51678 6.34622 2.5711C4.47563 3.62102 5.05248 6.6696 5.48618 8.35177C3.74123 8.8323 0.75 9.8673 0.75 11.9819C0.75 14.0905 3.73812 15.2166 5.47273 15.6967C5.03744 17.3881 4.48947 20.3932 6.36245 21.4408C8.24797 22.4949 10.7438 20.5459 12.0416 19.3291C13.3357 20.5398 15.7475 22.5016 17.6192 21.451C19.4967 20.3972 19.0077 17.3388 18.574 15.6469C20.2555 15.1657 23.25 14.0642 23.25 11.9819C23.25 9.88762 20.2427 8.84422 18.5253 8.36527ZM18.3122 14.7502C18.0274 13.8762 17.643 12.9467 17.1728 11.9866C17.6216 11.0491 17.9911 10.1316 18.2679 9.26317C19.5269 9.6171 22.2889 10.426 22.2889 11.9819C22.2889 13.5525 19.6385 14.369 18.3122 14.7502ZM17.1375 20.6445C15.741 21.4282 13.6666 19.5522 12.7108 18.6607C13.3449 17.9883 13.9785 17.2066 14.5969 16.3387C15.6847 16.2451 16.7123 16.0921 17.6442 15.8833C17.9494 17.08 18.5401 19.8572 17.1375 20.6445ZM6.84272 20.6333C5.44607 19.8525 6.08443 17.1709 6.40468 15.925C7.32625 16.1227 8.34645 16.2649 9.4368 16.3506C10.0592 17.1999 10.7112 17.9806 11.3682 18.6643C10.5565 19.4256 8.24587 21.4177 6.84272 20.6333ZM1.71112 11.9819C1.71112 10.4055 4.45655 9.60247 5.74428 9.24945C6.02588 10.1374 6.39521 11.0658 6.84092 12.0047C6.38944 12.9574 6.01483 13.9006 5.73064 14.799C4.50277 14.4582 1.71112 13.5593 1.71112 11.9819ZM6.82778 3.37765C8.23012 2.59062 10.406 4.50737 11.3369 5.3701C10.6833 6.05065 10.0373 6.82545 9.42023 7.66987C8.36205 7.76497 7.34906 7.91767 6.41782 8.12227C6.06844 6.76553 5.42694 4.16384 6.82778 3.37765ZM15.2845 8.68282C16.0024 8.77065 16.6902 8.8875 17.336 9.03045C17.1422 9.633 16.9005 10.2631 16.6159 10.909C16.2033 10.15 15.7604 9.4062 15.2845 8.68282ZM12.0107 6.03607C12.454 6.50173 12.8981 7.02172 13.3349 7.58587C12.4489 7.54522 11.5615 7.54507 10.6755 7.58527C11.1127 7.02636 11.5605 6.50713 12.0107 6.03607ZM7.39237 10.9083C7.11247 10.2646 6.87299 9.6318 6.67741 9.02062C7.31939 8.88135 8.004 8.7675 8.71725 8.6811C8.23995 9.4029 7.79782 10.1464 7.39237 10.9083ZM8.73773 15.3493C8.00093 15.2695 7.30594 15.1615 6.66417 15.026C6.86283 14.4041 7.10758 13.7576 7.39347 13.1001C7.8045 13.87 8.25338 14.6206 8.73773 15.3493ZM12.0374 17.9936C11.5818 17.517 11.1274 16.9898 10.6836 16.4228C11.5746 16.4567 12.4673 16.4568 13.3583 16.4182C12.9201 16.9956 12.4777 17.5235 12.0374 17.9936ZM16.625 13.0666C16.9258 13.7313 17.1793 14.3743 17.3806 14.9857C16.7282 15.13 16.0239 15.2463 15.2818 15.3326C15.7612 14.5955 16.2112 13.8402 16.625 13.0666ZM14.0605 15.4456C12.6976 15.54 11.3262 15.5389 9.96285 15.4533C9.18818 14.3561 8.49855 13.2022 7.90327 12.0043C8.4957 10.8089 9.1803 9.6573 9.9513 8.56185C11.3156 8.46187 12.6884 8.46157 14.0527 8.56245C14.8171 9.65782 15.5006 10.8064 16.1068 11.9911C15.5078 13.1859 14.8196 14.3398 14.0605 15.4456ZM17.1227 3.34995C18.5254 4.1344 17.9011 6.92044 17.5946 8.13195C16.6612 7.92307 15.6475 7.76767 14.5862 7.67107C13.9679 6.81753 13.3273 6.04138 12.6843 5.36962C13.6271 4.48831 15.7336 2.57317 17.1227 3.34995Z" fill="#53C1DE"/>
</svg>
