<svg width="171" height="96" viewBox="0 0 171 96" fill="none" xmlns="http://www.w3.org/2000/svg">
<path d="M164 54.5C167.59 54.5 170.5 51.5899 170.5 48C170.5 44.4101 167.59 41.5 164 41.5V54.5ZM2.40381 43.4038C-0.134602 45.9422 -0.134602 50.0578 2.40381 52.5962L43.7696 93.9619C46.308 96.5003 50.4235 96.5003 52.9619 93.9619C55.5003 91.4235 55.5003 87.308 52.9619 84.7696L16.1924 48L52.9619 11.2304C55.5003 8.69204 55.5003 4.57647 52.9619 2.03806C50.4235 -0.500349 46.308 -0.500349 43.7696 2.03806L2.40381 43.4038ZM164 41.5L7 41.5V54.5L164 54.5V41.5Z" fill="#32AEF3"/>
</svg>
