<svg width="12" height="12" viewBox="0 0 12 12" fill="none" xmlns="http://www.w3.org/2000/svg">
<path d="M11.84 5.61405C11.8907 5.66471 11.931 5.72486 11.9584 5.79107C11.9859 5.85729 12 5.92826 12 5.99994C12 6.07161 11.9859 6.14259 11.9584 6.2088C11.931 6.27501 11.8907 6.33517 11.84 6.38582L6.38582 11.84C6.33517 11.8907 6.27501 11.931 6.2088 11.9584C6.14259 11.9859 6.07161 12 5.99994 12C5.92826 12 5.85729 11.9859 5.79107 11.9584C5.72486 11.931 5.66471 11.8907 5.61405 11.84L0.159839 6.38582C0.0574958 6.28348 0 6.14467 0 5.99994C0 5.8552 0.0574958 5.71639 0.159839 5.61405C0.262182 5.51171 0.400989 5.45421 0.545724 5.45421C0.69046 5.45421 0.829267 5.51171 0.93161 5.61405L5.99994 10.6831L11.0683 5.61405C11.1189 5.56334 11.1791 5.52311 11.2453 5.49566C11.3115 5.46821 11.3825 5.45409 11.4541 5.45409C11.5258 5.45409 11.5968 5.46821 11.663 5.49566C11.7292 5.52311 11.7894 5.56334 11.84 5.61405ZM5.61405 6.38582C5.66471 6.43653 5.72486 6.47676 5.79107 6.50421C5.85729 6.53166 5.92826 6.54579 5.99994 6.54579C6.07161 6.54579 6.14259 6.53166 6.2088 6.50421C6.27501 6.47676 6.33517 6.43653 6.38582 6.38582L11.84 0.93161C11.9424 0.829267 11.9999 0.69046 11.9999 0.545724C11.9999 0.400989 11.9424 0.262182 11.84 0.159839C11.7377 0.0574958 11.5989 2.85308e-09 11.4541 0C11.3094 -2.85308e-09 11.1706 0.0574958 11.0683 0.159839L5.99994 5.22885L0.93161 0.159839C0.829267 0.0574958 0.69046 -1.07836e-09 0.545724 0C0.400989 1.07836e-09 0.262182 0.0574958 0.159839 0.159839C0.0574958 0.262182 1.07836e-09 0.400989 0 0.545724C-1.07836e-09 0.69046 0.0574958 0.829267 0.159839 0.93161L5.61405 6.38582Z" fill="#222222"/>
</svg>
