<svg width="64" height="64" viewBox="0 0 64 64" fill="none" xmlns="http://www.w3.org/2000/svg">
<rect x="11" y="11" width="42" height="42" rx="5" stroke="#222222" stroke-width="4"/>
<circle cx="32.5" cy="24.5" r="6.5" stroke="#222222" stroke-width="4"/>
<mask id="path-3-inside-1_1261_2" fill="white">
<path d="M47 43.5C47 39.6544 45.4723 35.9662 42.753 33.247C40.0338 30.5277 36.3456 29 32.5 29C28.6544 29 24.9662 30.5277 22.247 33.247C19.5277 35.9662 18 39.6544 18 43.5L22.5166 43.5C22.5166 40.8522 23.5685 38.3129 25.4407 36.4407C27.3129 34.5685 29.8523 33.5166 32.5 33.5166C35.1478 33.5166 37.6871 34.5685 39.5593 36.4407C41.4315 38.3129 42.4834 40.8523 42.4834 43.5H47Z"/>
</mask>
<path d="M47 43.5C47 39.6544 45.4723 35.9662 42.753 33.247C40.0338 30.5277 36.3456 29 32.5 29C28.6544 29 24.9662 30.5277 22.247 33.247C19.5277 35.9662 18 39.6544 18 43.5L22.5166 43.5C22.5166 40.8522 23.5685 38.3129 25.4407 36.4407C27.3129 34.5685 29.8523 33.5166 32.5 33.5166C35.1478 33.5166 37.6871 34.5685 39.5593 36.4407C41.4315 38.3129 42.4834 40.8523 42.4834 43.5H47Z" stroke="#222222" stroke-width="6" mask="url(#path-3-inside-1_1261_2)"/>
</svg>
