<svg width="32" height="32" viewBox="0 0 32 32" fill="none" xmlns="http://www.w3.org/2000/svg">
<path d="M2 12.1333C2 8.58633 2 6.81283 2.69029 5.45806C3.29749 4.26637 4.26637 3.29749 5.45806 2.69029C6.81283 2 8.58633 2 12.1333 2H19.8667C23.4137 2 25.1872 2 26.5419 2.69029C27.7336 3.29749 28.7025 4.26637 29.3097 5.45806C30 6.81283 30 8.58633 30 12.1333V19.8667C30 23.4137 30 25.1872 29.3097 26.5419C28.7025 27.7336 27.7336 28.7025 26.5419 29.3097C25.1872 30 23.4137 30 19.8667 30H12.1333C8.58633 30 6.81283 30 5.45806 29.3097C4.26637 28.7025 3.29749 27.7336 2.69029 26.5419C2 25.1872 2 23.4137 2 19.8667V12.1333Z" fill="#330000"/>
<path d="M15.5686 19.5963H11.2297L10.3469 22.409C10.3224 22.5135 10.2262 22.5875 10.1215 22.5823H7.92384C7.79851 22.5823 7.75469 22.5117 7.79236 22.3704L11.549 11.2738C11.5866 11.1582 11.6242 11.0266 11.6617 10.8789C11.7109 10.6218 11.736 10.3606 11.7369 10.0987C11.7261 10.0213 11.7941 9.95294 11.8683 9.96378H14.8549C14.9424 9.96378 14.9924 9.9959 15.0051 10.0601L19.269 22.3897C19.3065 22.5182 19.269 22.5824 19.1563 22.5823H16.7144C16.6288 22.5921 16.547 22.5334 16.5266 22.4475L15.5686 19.5963ZM11.9059 17.1689H14.8737C14.3861 15.5027 13.8358 13.8584 13.3898 12.1793C12.9086 13.8613 12.3836 15.5365 11.9059 17.1689Z" fill="#FF9A00"/>
<path d="M21.8038 12.0058C21.6122 12.0137 21.4212 11.98 21.2431 11.907C21.0651 11.834 20.9041 11.7232 20.7707 11.582C20.6377 11.4346 20.5343 11.2618 20.4666 11.0733C20.3989 10.8849 20.3682 10.6846 20.3762 10.4839C20.3694 10.2852 20.4035 10.0873 20.4763 9.90305C20.5492 9.71881 20.6591 9.5524 20.7989 9.41468C20.9373 9.27839 21.1007 9.17161 21.2797 9.10052C21.4586 9.02942 21.6495 8.99543 21.8413 9.00049C22.2922 9.00049 22.6459 9.13856 22.9026 9.41468C23.0322 9.55818 23.1329 9.72648 23.199 9.90995C23.265 10.0934 23.2952 10.2885 23.2876 10.4839C23.2955 10.6853 23.2638 10.8864 23.1944 11.075C23.1251 11.2636 23.0194 11.436 22.8838 11.582C22.7421 11.7253 22.5729 11.8369 22.3871 11.9099C22.2012 11.9828 22.0026 12.0155 21.8038 12.0058ZM20.5077 22.3896V13.181C20.5077 13.0654 20.5576 13.0076 20.658 13.0076H22.9684C23.0684 13.0076 23.1185 13.0654 23.1186 13.181V22.3896C23.1186 22.5182 23.0685 22.5824 22.9684 22.5823H20.6768C20.5641 22.5823 20.5077 22.5181 20.5077 22.3896Z" fill="#FF9A00"/>
</svg>
