<svg width="256" height="256" viewBox="0 0 256 256" fill="none" xmlns="http://www.w3.org/2000/svg">
<mask id="path-1-inside-1_1139_12" fill="white">
<path d="M52 92C52 86.4772 56.4772 82 62 82H105V214H62C56.4772 214 52 209.523 52 204V92Z"/>
</mask>
<path d="M43 92C43 81.5066 51.5066 73 62 73H105V91H62C61.4477 91 61 91.4477 61 92H43ZM105 223H62C51.5066 223 43 214.493 43 204H61C61 204.552 61.4477 205 62 205H105V223ZM62 223C51.5066 223 43 214.493 43 204V92C43 81.5066 51.5066 73 62 73V91C61.4477 91 61 91.4477 61 92V204C61 204.552 61.4477 205 62 205V223ZM105 82V214V82Z" fill="white" mask="url(#path-1-inside-1_1139_12)"/>
<mask id="path-3-inside-2_1139_12" fill="white">
<path d="M52 165H164V204C164 209.523 159.523 214 154 214H62C56.4772 214 52 209.523 52 204V165Z"/>
</mask>
<path d="M52 165H164H52ZM173 204C173 214.493 164.493 223 154 223H62C51.5066 223 43 214.493 43 204H61C61 204.552 61.4477 205 62 205H154C154.552 205 155 204.552 155 204H173ZM62 223C51.5066 223 43 214.493 43 204V165H61V204C61 204.552 61.4477 205 62 205V223ZM173 165V204C173 214.493 164.493 223 154 223V205C154.552 205 155 204.552 155 204V165H173Z" fill="white" mask="url(#path-3-inside-2_1139_12)"/>
<mask id="path-5-inside-3_1139_12" fill="white">
<path d="M96 52C96 46.4772 100.477 42 106 42H197.729C203.252 42 207.729 46.4772 207.729 52V163.552C207.729 169.075 203.252 173.552 197.729 173.552H106C100.477 173.552 96 169.075 96 163.552V52Z"/>
</mask>
<path d="M96 42H207.729H96ZM207.729 163.552C207.729 174.045 199.223 182.552 188.729 182.552H106C95.5066 182.552 87 174.045 87 163.552H105C105 164.104 105.448 164.552 106 164.552H197.729C203.252 164.552 207.729 164.104 207.729 163.552ZM106 182.552C95.5066 182.552 87 174.045 87 163.552V61C87 50.5066 95.5066 42 106 42C105.448 42 105 46.4772 105 52V163.552C105 164.104 105.448 164.552 106 164.552V182.552ZM207.729 42V173.552V42Z" fill="white" mask="url(#path-5-inside-3_1139_12)"/>
<path d="M168 47L168 82" stroke="white" stroke-width="9" stroke-linecap="round"/>
<path d="M168 47L168 82" stroke="white" stroke-width="9" stroke-linecap="round"/>
<path d="M168 47L168 82" stroke="white" stroke-width="9" stroke-linecap="round"/>
<path d="M168 47L168 82" stroke="white" stroke-width="9" stroke-linecap="round"/>
<path d="M168 47L168 82" stroke="white" stroke-width="9" stroke-linecap="round"/>
<path d="M168 47L168 82" stroke="white" stroke-width="9" stroke-linecap="round"/>
<path d="M168 47L202 81" stroke="white" stroke-width="9" stroke-linecap="round"/>
<path d="M168 47L202 81" stroke="white" stroke-width="9" stroke-linecap="round"/>
<path d="M168 47L202 81" stroke="white" stroke-width="9" stroke-linecap="round"/>
<path d="M168 47L202 81" stroke="white" stroke-width="9" stroke-linecap="round"/>
<path d="M168 47L202 81" stroke="white" stroke-width="9" stroke-linecap="round"/>
<path d="M168 47L202 81" stroke="white" stroke-width="9" stroke-linecap="round"/>
<path d="M168 82L203 82" stroke="white" stroke-width="9" stroke-linecap="round"/>
<path d="M168 82L203 82" stroke="white" stroke-width="9" stroke-linecap="round"/>
<path d="M168 82L203 82" stroke="white" stroke-width="9" stroke-linecap="round"/>
<path d="M168 82L203 82" stroke="white" stroke-width="9" stroke-linecap="round"/>
<path d="M168 82L203 82" stroke="white" stroke-width="9" stroke-linecap="round"/>
<path d="M168 82L203 82" stroke="white" stroke-width="9" stroke-linecap="round"/>
<path d="M199 82.5C199 80.0147 201.015 78 203.5 78V78C205.985 78 208 80.0147 208 82.5V164C208 168.971 203.971 173 199 173V173V82.5Z" fill="white"/>
<path d="M167.5 51C169.985 51 172 48.9853 172 46.5V46.5C172 44.0147 169.985 42 167.5 42L105 42C100.029 42 96 46.0294 96 51V51L167.5 51Z" fill="white"/>
</svg>
