<svg width="16" height="16" viewBox="0 0 16 16" fill="none" xmlns="http://www.w3.org/2000/svg">
<path fill-rule="evenodd" clip-rule="evenodd" d="M5.17787 3.72882C5.32701 3.25843 4.8617 2.86132 4.4633 3.1525C2.97002 4.24389 2 6.00858 2 7.99984C2 11.3135 4.68629 13.9998 8 13.9998C11.3137 13.9998 14 11.3135 14 7.99984C14 5.50205 12.4737 3.36074 10.3029 2.45769C10.0473 2.35134 9.76402 2.49904 9.68034 2.76297V2.76297C9.59705 3.02569 9.74334 3.30401 9.996 3.41414C11.764 4.18477 13 5.94797 13 7.99984C13 10.7612 10.7614 12.9998 8 12.9998C5.23858 12.9998 3 10.7612 3 7.99984C3 6.37997 3.77031 4.94002 4.9646 4.02631C5.06378 3.95042 5.14012 3.84786 5.17787 3.72882V3.72882Z" fill="#C5C5C5"/>
</svg>
