<svg width="128" height="128" viewBox="0 0 128 128" fill="none" xmlns="http://www.w3.org/2000/svg">
<path d="M87.728 31.74L65.482 53.727L52.932 44.276L38.069 49.233L54.04 65.033L38.069 80.826L52.932 85.789L65.482 76.333L87.728 98.326L106.94 90.165V39.9L87.728 31.74ZM88.746 77.033L72.44 64.988H72.462L88.746 53.033V77.033Z" fill="#020E15"/>
<path d="M83.728 27.74L61.482 49.727L48.932 40.276L34.069 45.233L50.04 61.033L34.069 76.826L48.932 81.789L61.482 72.333L83.728 94.326L102.94 86.165V35.9L83.728 27.74ZM84.746 73.033L68.44 60.988H68.462L84.746 49.033V73.033Z" fill="#083A53"/>
<path d="M61.8799 65.4L48.1139 75.771L42.4399 73.877L56.4399 60.033L42.4399 46.187L48.1139 44.293L61.8799 54.661L84.7459 32.061L98.4399 37.877V82.187L84.7459 88.005L61.8799 65.4ZM69.0139 60.03L84.7399 71.879V48.185L69.0139 60.03Z" fill="#007ACC"/>
</svg>
