<svg width="32" height="32" viewBox="0 0 32 32" fill="none" xmlns="http://www.w3.org/2000/svg">
<path d="M15.1242 5.30001C15.1242 5.13545 15.173 4.97459 15.2645 4.83777C15.3559 4.70095 15.4858 4.59431 15.6379 4.53134C15.7899 4.46837 15.9572 4.45189 16.1186 4.48399C16.28 4.5161 16.4282 4.59534 16.5446 4.71169C16.6609 4.82805 16.7402 4.9763 16.7723 5.13769C16.8044 5.29908 16.7879 5.46637 16.7249 5.6184C16.6619 5.77043 16.5553 5.90037 16.4185 5.99179C16.2817 6.08321 16.1208 6.13201 15.9563 6.13201C15.847 6.13214 15.7387 6.11071 15.6377 6.06894C15.5367 6.02718 15.4449 5.9659 15.3676 5.88861C15.2904 5.81133 15.2291 5.71956 15.1873 5.61855C15.1455 5.51755 15.1241 5.4093 15.1242 5.30001ZM5.20025 12.834C5.20025 12.6695 5.24905 12.5086 5.34047 12.3718C5.43189 12.2349 5.56183 12.1283 5.71386 12.0653C5.86589 12.0024 6.03317 11.9859 6.19456 12.018C6.35596 12.0501 6.50421 12.1293 6.62056 12.2457C6.73692 12.3621 6.81616 12.5103 6.84826 12.6717C6.88037 12.8331 6.86389 13.0004 6.80092 13.1524C6.73795 13.3044 6.63131 13.4344 6.49448 13.5258C6.35766 13.6172 6.1968 13.666 6.03225 13.666C5.92299 13.666 5.8148 13.6445 5.71386 13.6027C5.61291 13.5609 5.52119 13.4996 5.44394 13.4223C5.36668 13.3451 5.30539 13.2533 5.26358 13.1524C5.22177 13.0515 5.20025 12.9433 5.20025 12.834ZM25.0562 12.873C25.0562 12.7085 25.105 12.5476 25.1965 12.4108C25.2879 12.2739 25.4178 12.1673 25.5699 12.1043C25.7219 12.0414 25.8892 12.0249 26.0506 12.057C26.212 12.0891 26.3602 12.1683 26.4766 12.2847C26.5929 12.401 26.6722 12.5493 26.7043 12.7107C26.7364 12.8721 26.7199 13.0394 26.6569 13.1914C26.5939 13.3434 26.4873 13.4734 26.3505 13.5648C26.2137 13.6562 26.0528 13.705 25.8883 13.705C25.779 13.7051 25.6707 13.6837 25.5697 13.6419C25.4687 13.6002 25.3769 13.5389 25.2996 13.4616C25.2224 13.3843 25.1611 13.2926 25.1193 13.1916C25.0775 13.0906 25.0561 12.9823 25.0562 12.873ZM7.60525 14.013C7.78867 13.9312 7.93224 13.78 8.00457 13.5926C8.0769 13.4053 8.07211 13.1969 7.99125 13.013L7.62225 12.178H9.07425V18.723H6.14425C5.7826 17.4529 5.66987 16.1249 5.81225 14.812L7.60525 14.013ZM13.6792 14.174V12.245H17.1372C17.3162 12.245 18.3983 12.451 18.3983 13.261C18.3983 13.933 17.5682 14.174 16.8853 14.174H13.6792ZM8.95825 24.561C8.95825 24.3965 9.00705 24.2356 9.09847 24.0988C9.18989 23.962 9.31983 23.8553 9.47186 23.7923C9.62389 23.7294 9.79117 23.7129 9.95257 23.745C10.114 23.7771 10.2622 23.8563 10.3786 23.9727C10.4949 24.0891 10.5742 24.2373 10.6063 24.3987C10.6384 24.5601 10.6219 24.7274 10.5589 24.8794C10.4959 25.0314 10.3893 25.1614 10.2525 25.2528C10.1157 25.3442 9.9548 25.393 9.79025 25.393C9.68095 25.3931 9.5727 25.3717 9.4717 25.3299C9.3707 25.2882 9.27893 25.2269 9.20164 25.1496C9.12436 25.0723 9.06308 24.9806 9.02131 24.8796C8.97955 24.7786 8.95812 24.6703 8.95825 24.561ZM21.2892 24.6C21.2892 24.4355 21.338 24.2746 21.4295 24.1378C21.5209 24.0009 21.6508 23.8943 21.8029 23.8313C21.9549 23.7684 22.1222 23.7519 22.2836 23.784C22.445 23.8161 22.5932 23.8953 22.7096 24.0117C22.8259 24.128 22.9052 24.2763 22.9373 24.4377C22.9694 24.5991 22.9529 24.7664 22.8899 24.9184C22.8269 25.0704 22.7203 25.2004 22.5835 25.2918C22.4467 25.3832 22.2858 25.432 22.1213 25.432C21.9006 25.432 21.689 25.3443 21.5329 25.1883C21.3769 25.0323 21.2892 24.8207 21.2892 24.6ZM21.5462 22.713C21.4488 22.6922 21.3482 22.6908 21.2502 22.7088C21.1522 22.7269 21.0588 22.7641 20.9752 22.8184C20.8916 22.8726 20.8195 22.9428 20.7631 23.025C20.7066 23.1071 20.6669 23.1995 20.6462 23.297L20.2283 25.246C18.8848 25.8543 17.426 26.1656 15.9513 26.1585C14.4766 26.1514 13.0208 25.8262 11.6832 25.205L11.2662 23.256C11.224 23.0594 11.1056 22.8877 10.9368 22.7784C10.7681 22.6691 10.5629 22.6312 10.3663 22.673L8.64525 23.043C8.32539 22.7137 8.02805 22.3632 7.75525 21.994H16.1292C16.2242 21.994 16.2873 21.977 16.2873 21.894V18.928C16.2873 18.842 16.2242 18.828 16.1292 18.828H13.6792V16.947H16.3282C16.7231 16.951 17.1037 17.0951 17.4021 17.3538C17.7005 17.6124 17.8973 17.9687 17.9573 18.359C18.0623 18.772 18.2932 20.116 18.4513 20.546C18.6082 21.029 19.2513 21.993 19.9333 21.993H24.2563C23.9664 22.3817 23.6492 22.7493 23.3072 23.093L21.5462 22.713ZM26.1962 14.892C26.2551 15.4833 26.2624 16.0785 26.2183 16.671H25.1672C25.0623 16.671 25.0192 16.74 25.0192 16.843V17.326C25.0192 18.462 24.3783 18.71 23.8193 18.773C23.2843 18.833 22.6912 18.549 22.6192 18.222C22.5807 17.6556 22.4093 17.1063 22.119 16.6185C21.8287 16.1307 21.4276 15.718 20.9482 15.414C21.9783 14.76 23.0483 13.795 23.0483 12.503C23.027 11.9541 22.8688 11.4192 22.5879 10.9471C22.3071 10.4749 21.9125 10.0806 21.4403 9.80001C20.7815 9.37332 20.0237 9.12394 19.2402 9.07601H8.36725C9.87025 7.39607 11.8853 6.25866 14.1003 5.84001L15.3822 7.18401C15.4509 7.25613 15.5331 7.31402 15.6242 7.35436C15.7152 7.3947 15.8133 7.41671 15.9129 7.41912C16.0124 7.42154 16.1115 7.40431 16.2044 7.36843C16.2973 7.33255 16.3822 7.27872 16.4543 7.21001L17.8883 5.83801C19.3504 6.11232 20.7352 6.70167 21.9466 7.56511C23.158 8.42855 24.1669 9.54538 24.9032 10.838L23.9212 13.055C23.8407 13.2389 23.836 13.4472 23.9083 13.6345C23.9806 13.8218 24.124 13.973 24.3072 14.055L26.1962 14.892ZM28.6442 14.928L28.6112 14.585L29.6222 13.642C29.6606 13.6021 29.6906 13.5551 29.7107 13.5036C29.7308 13.4521 29.7405 13.3971 29.7393 13.3418C29.7381 13.2865 29.726 13.232 29.7037 13.1814C29.6814 13.1308 29.6493 13.0852 29.6092 13.047C29.5738 13.0133 29.5329 12.9859 29.4883 12.966L28.2003 12.483L28.1003 12.149L28.9062 11.029C28.9658 10.9346 28.9855 10.8206 28.9612 10.7117C28.9368 10.6028 28.8703 10.508 28.7762 10.448C28.7353 10.4223 28.6904 10.4037 28.6432 10.393L27.2803 10.171L27.1162 9.86501L27.6892 8.60801C27.7095 8.55679 27.7195 8.50209 27.7186 8.44702C27.7177 8.39195 27.706 8.3376 27.684 8.28708C27.6621 8.23655 27.6304 8.19085 27.5908 8.15257C27.5512 8.11429 27.5045 8.0842 27.4532 8.06401C27.4067 8.04585 27.3572 8.03603 27.3072 8.03501L25.9242 8.08301L25.7003 7.81901L26.0182 6.47201C26.0277 6.4175 26.0264 6.36167 26.0143 6.30769C26.0022 6.25371 25.9795 6.20265 25.9477 6.15742C25.9158 6.11219 25.8754 6.07369 25.8286 6.0441C25.7819 6.01452 25.7298 5.99444 25.6752 5.98501C25.6276 5.97701 25.5789 5.97701 25.5312 5.98501L24.1833 6.30001L23.9172 6.08101L23.9662 4.70001C23.965 4.64471 23.9528 4.59022 23.9304 4.53964C23.908 4.48906 23.8759 4.44337 23.8359 4.40521C23.7959 4.36704 23.7487 4.33713 23.6971 4.31719C23.6455 4.29726 23.5905 4.28768 23.5352 4.28901C23.487 4.29028 23.4393 4.29975 23.3942 4.31701L22.1372 4.89001L21.8312 4.72601L21.6092 3.36301C21.5846 3.2548 21.5183 3.1607 21.4247 3.10115C21.331 3.04159 21.2177 3.02142 21.1092 3.04501C21.0621 3.05574 21.0172 3.07433 20.9762 3.10001L19.8552 3.90601L19.5222 3.80601L19.0392 2.51301C18.9941 2.41092 18.9103 2.33093 18.8063 2.29061C18.7022 2.2503 18.5864 2.25296 18.4842 2.29801C18.4401 2.31792 18.3996 2.34495 18.3643 2.37801L17.4182 3.39001L17.0753 3.35701L16.3472 2.18001C16.3084 2.12491 16.2568 2.07996 16.197 2.04893C16.1371 2.0179 16.0707 2.00171 16.0033 2.00171C15.9358 2.00171 15.8694 2.0179 15.8095 2.04893C15.7497 2.07996 15.6981 2.12491 15.6593 2.18001L14.9312 3.35701L14.5883 3.39001L13.6453 2.37801C13.5643 2.30113 13.4562 2.25952 13.3446 2.26233C13.2331 2.26515 13.1272 2.31215 13.0503 2.39301C13.0172 2.42836 12.9902 2.4689 12.9703 2.51301L12.4832 3.80001L12.1502 3.90001L11.0302 3.10001C10.9359 3.04047 10.8218 3.02072 10.7129 3.04508C10.604 3.06945 10.5092 3.13593 10.4493 3.23001C10.4236 3.27093 10.405 3.3159 10.3942 3.36301L10.1722 4.72601L9.86625 4.89001L8.60825 4.31701C8.5044 4.27679 8.38885 4.27937 8.28689 4.32416C8.18494 4.36895 8.10488 4.45232 8.06425 4.55601C8.047 4.60212 8.03753 4.65078 8.03625 4.70001L8.08425 6.08301L7.81825 6.30001L6.47125 5.98401C6.41675 5.97452 6.36091 5.97588 6.30693 5.98798C6.25296 6.00009 6.20189 6.02272 6.15666 6.05458C6.11144 6.08643 6.07293 6.12689 6.04335 6.17363C6.01376 6.22038 5.99368 6.2725 5.98425 6.32701C5.97625 6.37467 5.97625 6.42334 5.98425 6.47101L6.30025 7.81901L6.08225 8.08401L4.70025 8.03601C4.63275 8.03777 4.56665 8.0557 4.50752 8.0883C4.44838 8.1209 4.39794 8.16722 4.36041 8.22336C4.32289 8.27949 4.29938 8.34382 4.29187 8.41092C4.28436 8.47803 4.29306 8.54596 4.31725 8.60901L4.89025 9.86601L4.72625 10.172L3.36325 10.394C3.25491 10.4184 3.16064 10.4847 3.10104 10.5784C3.04145 10.6721 3.02139 10.7856 3.04525 10.894C3.05598 10.9411 3.07457 10.9861 3.10025 11.027L3.90625 12.147L3.80625 12.481L2.51325 12.964C2.41117 13.0091 2.33117 13.0929 2.29086 13.197C2.25054 13.3011 2.2532 13.4169 2.29825 13.519C2.31789 13.5638 2.34531 13.6048 2.37925 13.64L3.39025 14.583L3.35725 14.926L2.18025 15.654C2.12516 15.6929 2.0802 15.7444 2.04918 15.8043C2.01815 15.8641 2.00195 15.9306 2.00195 15.998C2.00195 16.0654 2.01815 16.1319 2.04918 16.1917C2.0802 16.2516 2.12516 16.3031 2.18025 16.342L3.35725 17.07L3.39025 17.413L2.37925 18.356C2.30237 18.4369 2.26077 18.545 2.26358 18.6566C2.26639 18.7682 2.31339 18.8741 2.39425 18.951C2.42923 18.9841 2.46944 19.0111 2.51325 19.031L3.80625 19.514L3.90625 19.848L3.10025 20.972C3.07068 21.0188 3.05062 21.0709 3.0412 21.1254C3.03178 21.1799 3.0332 21.2357 3.04536 21.2896C3.05753 21.3436 3.08021 21.3946 3.1121 21.4398C3.144 21.485 3.18448 21.5235 3.23125 21.553C3.27218 21.5787 3.31714 21.5973 3.36425 21.608L4.72725 21.83L4.89125 22.137L4.31825 23.394C4.27806 23.4981 4.28074 23.6139 4.32572 23.7161C4.3707 23.8182 4.45431 23.8984 4.55825 23.939C4.60402 23.9563 4.65235 23.9657 4.70125 23.967L6.08425 23.919L6.30325 24.185L5.98625 25.533C5.96707 25.6427 5.99222 25.7555 6.05616 25.8466C6.1201 25.9377 6.21761 25.9997 6.32725 26.019C6.3755 26.028 6.42499 26.028 6.47325 26.019L7.81825 25.7L8.08425 25.918L8.03525 27.3C8.03642 27.3551 8.04845 27.4095 8.07066 27.4599C8.09286 27.5104 8.12481 27.5559 8.16466 27.594C8.20451 27.6321 8.25149 27.662 8.3029 27.6819C8.35431 27.7018 8.40914 27.7113 8.46425 27.71C8.5132 27.7092 8.56162 27.6997 8.60725 27.682L9.86425 27.109L10.1702 27.273L10.3923 28.635C10.4166 28.7434 10.4829 28.8377 10.5765 28.8975C10.6702 28.9573 10.7837 28.9776 10.8923 28.954C10.9395 28.9437 10.9845 28.9251 11.0252 28.899L12.1453 28.092L12.4792 28.192L12.9622 29.484C13.0078 29.586 13.0918 29.6658 13.196 29.7059C13.3003 29.746 13.4161 29.7432 13.5182 29.698C13.5621 29.6781 13.6023 29.6511 13.6372 29.618L14.5802 28.607L14.9233 28.641L15.6512 29.818C15.716 29.9092 15.8143 29.9709 15.9246 29.9897C16.0348 30.0084 16.148 29.9827 16.2393 29.918C16.2781 29.8907 16.3119 29.8568 16.3393 29.818L17.0672 28.641L17.4102 28.607L18.3533 29.618C18.4342 29.6949 18.5423 29.7365 18.6539 29.7337C18.7654 29.7309 18.8713 29.6839 18.9482 29.603C18.9813 29.568 19.0083 29.5278 19.0282 29.484L19.5112 28.192L19.8452 28.092L20.9653 28.899C21.012 28.9286 21.0641 28.9486 21.1186 28.9581C21.1731 28.9675 21.2289 28.9661 21.2829 28.9539C21.3368 28.9417 21.3879 28.919 21.4331 28.8872C21.4783 28.8553 21.5167 28.8148 21.5462 28.768C21.5719 28.7271 21.5905 28.6821 21.6012 28.635L21.8232 27.273L22.1292 27.109L23.3862 27.682C23.4901 27.7222 23.6056 27.7196 23.7076 27.6749C23.8096 27.6301 23.8896 27.5467 23.9303 27.443C23.9475 27.3972 23.957 27.3489 23.9583 27.3L23.9102 25.916L24.1752 25.698L25.5222 26.015C25.6319 26.0342 25.7447 26.0092 25.8359 25.9455C25.9272 25.8818 25.9895 25.7845 26.0093 25.675C26.0173 25.6267 26.0173 25.5773 26.0093 25.529L25.7003 24.183L25.9182 23.917L27.3013 23.965C27.4127 23.9621 27.5185 23.9151 27.5954 23.8343C27.6723 23.7535 27.7139 23.6455 27.7113 23.534C27.7106 23.4854 27.7011 23.4372 27.6833 23.392L27.1103 22.135L27.2743 21.828L28.6372 21.606C28.7456 21.5816 28.84 21.5154 28.8997 21.4217C28.9595 21.3281 28.9798 21.2146 28.9562 21.106C28.9453 21.0582 28.9264 21.0125 28.9002 20.971L28.0942 19.851L28.1943 19.517L29.4872 19.034C29.5378 19.0118 29.5834 18.9798 29.6215 18.9399C29.6597 18.9 29.6896 18.853 29.7096 18.8016C29.7295 18.7501 29.7392 18.6952 29.7379 18.6401C29.7367 18.5849 29.7245 18.5305 29.7022 18.48C29.6826 18.4352 29.6552 18.3942 29.6213 18.359L28.6103 17.416L28.6432 17.073L29.8202 16.345C29.8753 16.3061 29.9203 16.2546 29.9513 16.1947C29.9824 16.1349 29.9985 16.0684 29.9985 16.001C29.9985 15.9336 29.9824 15.8671 29.9513 15.8073C29.9203 15.7474 29.8753 15.6959 29.8202 15.657L28.6442 14.928Z" fill="url(#paint0_radial_1185_129)"/>
<defs>
<radialGradient id="paint0_radial_1185_129" cx="0" cy="0" r="1" gradientUnits="userSpaceOnUse" gradientTransform="translate(16.0149 16.3369) rotate(-30.0007) scale(13.9977 8.40346)">
<stop stop-color="#7D7D7D"/>
<stop offset="0.267" stop-color="#7E7C7A"/>
<stop offset="0.45" stop-color="#817871"/>
<stop offset="0.608" stop-color="#867162"/>
<stop offset="0.753" stop-color="#8D684C"/>
<stop offset="0.886" stop-color="#965C30"/>
<stop offset="1" stop-color="#A04F12"/>
</radialGradient>
</defs>
</svg>
