<svg width="32" height="32" viewBox="0 0 32 32" fill="none" xmlns="http://www.w3.org/2000/svg">
<g clip-path="url(#clip0_1185_131)">
<path d="M32.0002 8.86709V7.90197C31.9701 7.20829 31.9399 6.48444 31.8193 5.79076C31.6986 5.09707 31.4875 4.43354 31.1557 3.80018C30.824 3.16682 30.4319 2.59377 29.9192 2.11121C29.4064 1.59848 28.8334 1.2064 28.2302 0.874634C27.5968 0.542872 26.9333 0.331755 26.2396 0.211115C25.5459 0.0904737 24.8523 0.0301514 24.1284 0.0301514H7.93237C7.75141 0.0301514 7.57045 0.0301532 7.41965 0.0603134C6.90692 0.0904737 6.36403 0.120634 5.85131 0.211115C5.33859 0.301595 4.82586 0.452395 4.3433 0.633356C4.1925 0.693676 4.01154 0.784161 3.86074 0.844481C3.37817 1.08576 2.95593 1.38736 2.53368 1.71913C2.41304 1.83977 2.26225 1.9604 2.14161 2.08104C1.62888 2.59377 1.2368 3.16681 0.905034 3.77002C0.573272 4.40338 0.362151 5.06691 0.24151 5.76059C0.120869 6.45428 0.0907071 7.14796 0.0605469 7.87181V24.0679C0.0907071 24.7615 0.120869 25.4854 0.24151 26.1791C0.362151 26.8728 0.573272 27.5363 0.905034 28.1696C1.2368 28.803 1.62888 29.3761 2.14161 29.8586C2.65433 30.3713 3.22737 30.7634 3.83058 31.0952C4.46394 31.4269 5.12747 31.6381 5.82115 31.7587C6.51484 31.8794 7.20852 31.9397 7.93237 31.9397H24.1284C24.8221 31.9095 25.5459 31.8794 26.2396 31.7587C26.9333 31.6381 27.5968 31.4269 28.2302 31.0952C28.8636 30.7634 29.4366 30.3713 29.9192 29.8586C30.4319 29.3459 30.824 28.7728 31.1557 28.1696C31.4875 27.5363 31.6986 26.8728 31.8193 26.1791C31.9399 25.4854 32.0002 24.7917 32.0002 24.0679V23.1027V9.98303V8.86709Z" fill="#F05138"/>
<path d="M25.3338 19.755L25.4243 19.393C26.7513 14.115 23.5242 7.84166 18.035 4.5542C20.4478 7.8115 21.5034 11.7625 20.5685 15.2008C20.478 15.5024 20.3875 15.804 20.2669 16.1056C20.1462 16.0151 19.9954 15.9246 19.7843 15.8341C19.7843 15.8341 14.3253 12.4562 8.41389 6.51461C8.26309 6.36381 11.5807 11.2498 15.3206 15.2008C13.5411 14.2055 8.62502 10.6164 5.48835 7.78135C5.88044 8.41471 6.33284 9.04807 6.8154 9.62111C9.40918 12.9387 12.8173 17.0104 16.8889 20.147C14.0237 21.8963 9.98223 22.0471 5.97092 20.147C4.97563 19.6946 4.04066 19.1216 3.16602 18.4882C4.85499 21.2026 7.47893 23.5551 10.6759 24.9425C14.4761 26.5712 18.2763 26.4807 21.0812 24.9727C21.0812 24.9727 21.1114 24.9727 21.1114 24.9425C21.232 24.8822 21.3526 24.7917 21.4733 24.7314C22.8305 24.0377 25.4846 23.344 26.9323 26.1188C27.3545 26.7521 28.1085 23.1329 25.3338 19.755Z" fill="white"/>
</g>
<defs>
<clipPath id="clip0_1185_131">
<rect width="32" height="32" fill="white"/>
</clipPath>
</defs>
</svg>
